<?xml version="1.0" encoding="UTF-8"?>
<svg width="250px" height="80px" viewBox="0 0 250 80" version="1.1" xmlns="http://www.w3.org/2000/svg" xmlns:xlink="http://www.w3.org/1999/xlink">
    <title>940F9801-10EE-4FD1-8BF0-597D6C222A3F</title>
    <g id="Taxonomy" stroke="none" stroke-width="1" fill="none" fill-rule="evenodd">
        <g id="Components" transform="translate(-82.000000, -45.000000)" fill="#1A1919">
            <g id="Asset/Logo" transform="translate(82.000000, 45.000000)">
                <g id="Marco-Paul-black-logo" transform="translate(0.000000, 24.000000)">
                    <polygon id="Fill-1" points="4.31731231 3.23785146 4.47133133 0.642365511 2.20990731 0.616607159 2.20990731 0 5.98762197 0 5.98762197 0.0254928024 6.39869341 0.0254928024 16.3177835 33.0981551 26.185888 0.231294072 26.2371391 0.0254928024 26.5966939 0.0254928024 26.5966939 0 30.1943656 0.0254928024 30.1943656 0.642365511 28.0874917 0.642365511 30.2716407 35.8734185 32.7386004 35.8734185 32.7386004 36.4902912 25.0806688 36.4902912 25.0806688 35.8734185 27.3678512 35.8734185 25.4404891 4.90816112 16.0094799 36.3105138 15.9582288 36.515784 14.2879191 36.515784 4.85690996 5.01092898 3.10932525 35.8734185 5.60204333 35.8734185 5.60204333 36.515784 3.08356689 36.4902912 3.08356689 36.5415423 2.44146693 36.515784 2.44146693 36.4902912 0 36.4902912 0 35.8734185 2.49271809 35.8734185 4.31731231 3.26360981"></polygon>
                    <path d="M49.236241,2.41552269 L40.9101855,26.442489 L57.5365381,26.442489 L49.236241,2.41552269 Z M58.5387239,36.4901053 L58.5387239,35.8734981 L60.8001479,35.8734981 L57.7678322,27.0593617 L40.7046497,27.0848545 L37.6465756,35.8734981 L40.1392937,35.8734981 L40.1392937,36.5158636 L34.5372504,36.4901053 L34.5372504,35.8734981 L36.9787173,35.8734981 L49.3905255,0.0513308199 L49.4417767,0.0513308199 L49.4417767,0.0255724674 L51.497665,0.0255724674 L63.9094731,35.8734981 L66.1966555,35.8734981 L66.1966555,36.4901053 L58.5387239,36.4901053 Z" id="Fill-2"></path>
                    <g id="Group-17" transform="translate(67.995252, 0.025466)">
                        <path d="M5.29373975,23.847481 L12.360557,23.847481 L12.4120737,23.847481 C13.9538572,23.847481 15.2343394,23.5176679 16.2535204,22.8577761 C17.2727014,22.1986809 18.0820979,21.320507 18.6822409,20.2237854 C19.2815873,19.1278604 19.7054052,17.8856174 19.9542255,16.497853 C20.2025148,15.1103541 20.3267922,13.6883337 20.3267922,12.2320574 C20.3267922,10.3307192 20.1037302,8.50612496 19.6586684,6.75854025 C19.2130754,5.01095553 18.4379349,3.58096865 17.3329812,2.46698629 C16.2280276,1.35380058 14.6989905,0.745425476 12.7458701,0.642657616 L5.29373975,0.616899264 L5.29373975,23.847481 Z M15.0072941,36.4903177 L15.0072941,35.8737106 L17.0119313,35.8737106 L10.6129723,24.4640882 L5.29373975,24.4640882 L5.29373975,35.8224594 L7.65793163,35.8224594 L7.65793163,36.4648249 L0,36.4648249 L0,35.8479522 L2.36445743,35.8479522 L2.36445743,0.616899264 L0,0.616899264 L0,2.65550025e-05 L12.360557,2.65550025e-05 L12.4120737,2.65550025e-05 L12.8231452,2.65550025e-05 L12.9774297,2.65550025e-05 L12.9774297,0.0257849075 C15.8382002,0.248846929 18.2278848,1.43904214 20.1470149,3.5976983 C21.1404375,4.7114151 21.9198268,6.00915808 22.4851828,7.49092722 C23.0505388,8.97296191 23.3333496,10.5532501 23.3333496,12.2320574 C23.3333496,13.9281254 23.0505388,15.5129279 22.4851828,16.9861995 C21.9198268,18.4597366 21.1404375,19.7529652 20.1470149,20.8664164 C18.502198,22.7165035 16.4805657,23.8732394 14.0823834,24.335562 L20.5578208,35.8737106 L22.6652258,35.8737106 L22.6652258,36.4903177 L15.0072941,36.4903177 Z" id="Fill-3"></path>
                        <path d="M47.0263336,1.90176306 C47.3346372,2.07330838 47.6771968,2.31310005 48.0542778,2.62140363 C48.7739184,3.13550848 49.4932934,3.21676679 50.2129339,2.8654441 C50.932309,2.51465252 51.3178876,1.90176306 51.3691388,1.02810348 L51.343646,0.000159330015 L51.9602531,0.000159330015 L52.0372626,6.68139797 L52.063021,6.70715632 L51.728959,6.70715632 L51.3948971,6.70715632 L51.0608352,6.70715632 C49.8100946,4.90832045 48.2813231,3.46930486 46.4739896,2.39010956 C44.666125,1.3106487 42.6062535,0.719799898 40.2935783,0.616766489 C38.0148935,0.616766489 36.0962946,1.13963449 34.537516,2.18430829 C32.9784718,3.22951319 31.7277311,4.60878002 30.7855596,6.32184323 C29.8433882,8.03517199 29.1625179,9.93226138 28.7426833,12.0136425 C28.3225832,14.0952891 28.1130642,16.172687 28.1130642,18.2453049 C28.1130642,20.318454 28.3225832,22.3955863 28.7426833,24.4769674 C29.1625179,26.558614 29.8433882,28.4559689 30.7855596,30.1687666 C31.7277311,31.8820954 32.9784718,33.2616277 34.537516,34.306036 C36.0962946,35.3515064 38.0148935,35.8738433 40.2935783,35.8738433 C42.0751534,35.8738433 43.6511928,35.5440302 45.021962,34.8844039 C46.3922002,34.2253088 47.5701801,33.3341229 48.5553707,32.2119085 C49.5402957,31.0899596 50.3581898,29.8009798 51.009584,28.3444379 L52.9369461,28.3444379 C52.3883198,29.3553869 51.763215,30.2805632 51.0608352,31.1197012 C49.6733363,32.7990396 48.058261,34.1135122 46.2169372,35.0644469 C44.3753477,36.015116 42.4009833,36.4904505 40.2935783,36.4904505 C38.2031685,36.4904505 36.2375672,36.015116 34.3962433,35.0644469 C32.5543884,34.1135122 30.9398442,32.7990396 29.5520798,31.1197012 C28.1813105,29.4581547 27.1021152,27.5265438 26.3142283,25.3248686 C25.5260758,23.1237244 25.1322652,20.7635158 25.1322652,18.2453049 C25.1322652,15.727094 25.5260758,13.3674165 26.3142283,11.1657412 C27.1021152,8.96459708 28.1813105,7.03272065 29.5520798,5.37090859 C30.9398442,3.69210133 32.5543884,2.37709761 34.3962433,1.42642852 C36.2375672,0.475493875 38.2031685,0.000159330015 40.2935783,0.000159330015 C42.7092869,0.000159330015 44.9531846,0.63429279 47.0263336,1.90176306" id="Fill-5"></path>
                        <path d="M47.5815456,2.18441451 C46.0225014,3.22961941 44.7717608,4.60888624 43.8295893,6.3216839 C42.8874178,8.03501266 42.2065476,9.9323676 41.7869785,12.0137487 C41.3668784,14.0953953 41.1573594,16.1727932 41.1573594,18.2451456 C41.1573594,20.3182946 41.3668784,22.3954269 41.7869785,24.476808 C42.2065476,26.5584547 42.8874178,28.4560752 43.8295893,30.1688728 C44.7717608,31.8822016 46.0225014,33.2614684 47.5815456,34.3061422 C49.1403243,35.3513471 51.0591888,35.873684 53.3378735,35.873684 C55.6332879,35.873684 57.56065,35.3513471 59.1196942,34.3061422 C60.6782073,33.2614684 61.9289479,31.8822016 62.871385,30.1688728 C63.8135565,28.4560752 64.4944267,26.5584547 64.9142613,24.476808 C65.3340959,22.3954269 65.544146,20.3182946 65.544146,18.2451456 C65.544146,16.1727932 65.3340959,14.0953953 64.9142613,12.0137487 C64.4944267,9.9323676 63.8135565,8.03501266 62.871385,6.3216839 C61.9289479,4.60888624 60.6782073,3.22961941 59.1196942,2.18441451 C57.56065,1.13947516 55.6332879,0.616872709 53.3378735,0.616872709 C51.0591888,0.616872709 49.1403243,1.13947516 47.5815456,2.18441451 M59.2482204,1.42653474 C61.0810467,2.37720383 62.6916076,3.69220755 64.0793721,5.37101481 C65.4671365,7.03282687 66.5545638,8.96443775 67.3429819,11.1655819 C68.1306032,13.3672572 68.524945,15.7269347 68.524945,18.2451456 C68.524945,20.763622 68.1306032,23.1238307 67.3429819,25.3249748 C66.5545638,27.5266501 65.4671365,29.458261 64.0793721,31.1198075 C62.6916076,32.7988803 61.0810467,34.1133529 59.2482204,35.0642875 C57.4148631,36.0149566 55.445013,36.4902912 53.3378735,36.4902912 C51.2474637,36.4902912 49.2815969,36.0149566 47.440273,35.0642875 C45.598418,34.1133529 43.9838739,32.7988803 42.596375,31.1198075 C41.2253402,29.458261 40.1461449,27.5266501 39.358258,25.3249748 C38.5701055,23.1238307 38.1762948,20.763622 38.1762948,18.2451456 C38.1762948,15.7269347 38.5701055,13.3672572 39.358258,11.1655819 C40.1461449,8.96443775 41.2253402,7.03282687 42.596375,5.37101481 C43.9838739,3.69220755 45.598418,2.37720383 47.440273,1.42653474 C49.2815969,0.475334545 51.2474637,0 53.3378735,0 C55.445013,0 57.4148631,0.475334545 59.2482204,1.42653474" id="Fill-7"></path>
                        <path d="M88.6715085,23.8731597 L95.7383257,23.8474014 L95.7640841,23.8731597 L95.7898424,23.8731597 C97.3316259,23.8731597 98.6121081,23.5433466 99.6312891,22.8837203 C100.65047,22.2243596 101.459867,21.3419369 102.06001,20.2369832 C102.659356,19.1320296 103.083174,17.8900521 103.331994,16.5105197 C103.580284,15.131784 103.704561,13.7140124 103.704561,12.2580016 C103.704561,10.3563979 103.481499,8.53180365 103.036437,6.78421894 C102.590844,5.03663422 101.815704,3.60213298 100.71075,2.47991858 C99.6057963,1.35823527 98.0767593,0.745345811 96.1236388,0.642843501 L88.6715085,0.642843501 L88.6715085,23.8731597 Z M88.6715085,35.8481381 L91.0357003,35.8481381 L91.0357003,36.4647453 L83.3777687,36.4905036 L83.3777687,35.8481381 L85.7422261,35.8481381 L85.7422261,0.642843501 L83.3777687,0.642843501 L83.3777687,0.0257052424 L95.5070317,0.0257052424 L95.6870746,0.0257052424 C95.9608567,0.0257052424 96.2349043,0.0344683933 96.509483,0.0514635949 C99.301476,0.308516019 101.639909,1.49950788 103.524784,3.62337698 C104.518206,4.73709379 105.297596,6.03085351 105.862952,7.50359395 C106.428308,8.97739659 106.711118,10.561668 106.711118,12.2580016 C106.711118,13.9370744 106.428308,15.5173626 105.862952,16.9988662 C105.297596,18.4809009 104.518206,19.7786439 103.524784,20.8920951 C102.53083,22.0228071 101.370111,22.9052299 100.042626,23.5388322 C98.714876,24.1729657 97.2968388,24.4897669 95.7898424,24.4897669 L95.7640841,24.4897669 L95.7383257,24.4897669 L88.6715085,24.4897669 L88.6715085,35.8481381 Z" id="Fill-9"></path>
                        <path d="M116.013575,2.39005645 L107.687519,26.4170227 L124.313872,26.4170227 L116.013575,2.39005645 Z M125.316058,36.464639 L125.316058,35.8480319 L127.577482,35.8480319 L124.545166,27.0338954 L107.481983,27.0593882 L104.423909,35.8480319 L106.916627,35.8480319 L106.916627,36.4903974 L101.314584,36.464639 L101.314584,35.8480319 L103.756051,35.8480319 L116.167859,0.0258645725 L116.21911,0.0258645725 L116.21911,0.00010622001 L118.274999,0.00010622001 L130.686807,35.8480319 L132.973989,35.8480319 L132.973989,36.464639 L125.316058,36.464639 Z" id="Fill-11"></path>
                        <path d="M153.660469,32.8927788 C152.64952,34.0064956 151.484818,34.8844039 150.165831,35.5267695 C148.846313,36.1694005 147.433055,36.4904505 145.925528,36.4904505 L145.874277,36.4904505 L144.023924,36.4904505 L143.972673,36.4904505 L143.818388,36.4904505 L143.689862,36.4904505 C140.709063,36.3194363 138.224843,35.1202124 136.237732,32.8927788 C135.329551,31.8651002 134.592915,30.6828714 134.027559,29.3466237 C133.51372,28.010376 133.205416,26.6528843 133.102648,25.2736174 C132.999615,23.8946162 132.974122,22.5026029 133.025639,21.0978433 L133.025639,19.5815526 L133.025639,0.642790391 L130.661447,0.642790391 L130.661447,0.0256521324 L133.025639,0.0256521324 L133.025639,0.000159330015 L135.954921,0.000159330015 L135.954921,0.0256521324 L138.319379,0.0256521324 L138.319379,0.642790391 L135.954921,0.642790391 L135.954921,18.7849026 L135.954921,19.1447229 C135.937926,20.7210278 135.967933,22.4980886 136.044943,24.4769674 C136.121952,26.4555806 136.331471,28.1734237 136.674562,29.6291689 C136.982865,30.8113977 137.441205,31.8738633 138.049314,32.8157693 C138.657158,33.7582063 139.445576,34.4990909 140.413506,35.0386885 C141.38117,35.5780206 142.567913,35.848085 143.972673,35.848085 L144.023924,35.848085 L146.079812,35.848085 C148.11844,35.7798386 149.70696,35.1714635 150.846701,34.0234908 C151.985645,32.8760491 152.778046,31.4112752 153.223639,29.6291689 C153.566199,28.1734237 153.776249,26.4555806 153.853258,24.4769674 C153.930533,22.4980886 153.960009,20.7210278 153.943014,19.1447229 L153.943014,18.7849026 L153.943014,0.642790391 L151.579088,0.642790391 L151.579088,0.000159330015 L159.236754,0.000159330015 L159.236754,0.642790391 L156.872828,0.642790391 L156.872828,19.5815526 L156.872828,21.0978433 C156.924079,22.5026029 156.89832,23.8946162 156.795818,25.2736174 C156.692785,26.6528843 156.375718,28.010376 155.844884,29.3466237 C155.296257,30.6828714 154.568385,31.8651002 153.660469,32.8927788" id="Fill-13"></path>
                        <polygon id="Fill-15" points="166.32933 35.848085 181.38814 35.8738433 181.38814 33.5093859 182.004748 33.5093859 182.004748 36.4904505 161.03559 36.4646921 161.03559 35.848085 163.400047 35.848085 163.400047 0.642790391 161.03559 0.642790391 161.03559 0.000159330015 168.693521 0.000159330015 168.693521 0.642790391 166.32933 0.642790391"></polygon>
                    </g>
                </g>
            </g>
        </g>
    </g>
</svg>